<?xml version="1.0" encoding="UTF-8"?>
<svg xmlns="http://www.w3.org/2000/svg" viewBox="0 0 18 14" x="0" y="0" width="18" height="14"><!--! Font Awesome Free x.x.x by @fontawesome - https://fontawesome.com License - https://fontawesome.com/license/free (Icons: CC BY 4.0, Fonts: SIL OFL 1.1, Code: MIT License) Copyright 2025 Fonticons, Inc. --> 
<path d="M 0 1.5 C 0 0.671875 0.671875 0 1.5 0 L 4.5 0 C 5.32813 0 6 0.671875 6 1.5 L 6 2 L 12 2 L 12 1.5 C 12 0.671875 12.6719 0 13.5 0 L 16.5 0 C 17.3281 0 18 0.671875 18 1.5 L 18 4.5 C 18 5.32813 17.3281 6 16.5 6 L 13.5 6 C 12.6719 6 12 5.32813 12 4.5 L 12 4 L 6 4 L 6 4.5 C 6 4.54688 6 4.60938 5.98438 4.65625 L 8.5 8 L 11.5 8 C 12.3281 8 13 8.67188 13 9.5 L 13 12.5 C 13 13.3281 12.3281 14 11.5 14 L 8.5 14 C 7.67188 14 7 13.3281 7 12.5 L 7 9.5 C 7 9.45313 7 9.39063 7.01563 9.34375 L 4.5 6 L 1.5 6 C 0.671875 6 0 5.32813 0 4.5 L 0 1.5 Z" fill="#00d4ff" opacity="1"/>
</svg>