<?xml version="1.0" encoding="UTF-8"?>
<svg xmlns="http://www.w3.org/2000/svg" viewBox="0 0 17.9961 13.9961" x="0" y="0" width="17.9961" height="13.9961"><!--! Font Awesome Free x.x.x by @fontawesome - https://fontawesome.com License - https://fontawesome.com/license/free (Icons: CC BY 4.0, Fonts: SIL OFL 1.1, Code: MIT License) Copyright 2025 Fonticons, Inc. --> 
<path d="M 0.292969 1.69922 C -0.0976563 1.30859 -0.0976563 0.683594 0.292969 0.292969 C 0.683594 -0.0976563 1.30859 -0.0976563 1.69922 0.292969 L 7.69922 6.29297 C 8.08984 6.68359 8.08984 7.30859 7.69922 7.69922 L 1.69922 13.6992 C 1.30859 14.0898 0.683594 14.0898 0.292969 13.6992 C -0.0976563 13.3086 -0.0976563 12.6836 0.292969 12.293 L 5.57422 6.99609 L 0.292969 1.69922 M 7.99609 11.9961 L 16.9961 11.9961 C 17.543 11.9961 17.9961 12.4492 17.9961 12.9961 C 17.9961 13.543 17.543 13.9961 16.9961 13.9961 L 7.99609 13.9961 C 7.44922 13.9961 6.99609 13.543 6.99609 12.9961 C 6.99609 12.4492 7.44922 11.9961 7.99609 11.9961" fill="#00d4ff" opacity="1"/>
</svg>