<?xml version="1.0" encoding="UTF-8"?>
<svg xmlns="http://www.w3.org/2000/svg" viewBox="0 0 20.0078 20" x="0" y="0" width="20.0078" height="20"><!--! Font Awesome Free x.x.x by @fontawesome - https://fontawesome.com License - https://fontawesome.com/license/free (Icons: CC BY 4.0, Fonts: SIL OFL 1.1, Code: MIT License) Copyright 2025 Fonticons, Inc. --> 
<path d="M 10.0039 20 C 13.582 20 16.8789 18.0938 18.6602 15 C 20.457 11.9063 20.457 8.09375 18.6602 5 C 16.8789 1.90625 13.582 0 10.0039 0 C 6.42578 0 3.12891 1.90625 1.34766 5 C -0.449219 8.09375 -0.449219 11.9063 1.34766 15 C 3.12891 18.0938 6.42578 20 10.0039 20 M 14.4258 8.15625 L 9.42578 13.1563 C 9.05078 13.5313 8.45703 13.5313 8.09766 13.1563 L 5.59766 10.6563 C 5.22266 10.2969 5.22266 9.70313 5.59766 9.34375 C 5.95703 8.98438 6.55078 8.96875 6.92578 9.34375 L 8.75391 11.1719 L 13.0977 6.82813 C 13.457 6.46875 14.0508 6.46875 14.4102 6.82813 C 14.7695 7.20313 14.7852 7.79688 14.4102 8.15625 L 14.4258 8.15625" fill="#00d4ff" opacity="1"/>
</svg>