<?xml version="1.0" encoding="UTF-8"?>
<svg xmlns="http://www.w3.org/2000/svg" viewBox="0 0 16 14" x="0" y="0" width="16" height="14"><!--! Font Awesome Free x.x.x by @fontawesome - https://fontawesome.com License - https://fontawesome.com/license/free (Icons: CC BY 4.0, Fonts: SIL OFL 1.1, Code: MIT License) Copyright 2025 Fonticons, Inc. --> 
<path d="M 1 0 C 1.54688 0 2 0.453125 2 1 L 2 11.5 C 2 11.7813 2.21875 12 2.5 12 L 15 12 C 15.5469 12 16 12.4531 16 13 C 16 13.5469 15.5469 14 15 14 L 2.5 14 C 1.125 14 0 12.875 0 11.5 L 0 1 C 0 0.453125 0.453125 0 1 0 M 4 3 C 4 2.45313 4.45313 2 5 2 L 11 2 C 11.5469 2 12 2.45313 12 3 C 12 3.54688 11.5469 4 11 4 L 5 4 C 4.45313 4 4 3.54688 4 3 M 5 5 L 9 5 C 9.54688 5 10 5.45313 10 6 C 10 6.54688 9.54688 7 9 7 L 5 7 C 4.45313 7 4 6.54688 4 6 C 4 5.45313 4.45313 5 5 5 M 5 8 L 13 8 C 13.5469 8 14 8.45313 14 9 C 14 9.54688 13.5469 10 13 10 L 5 10 C 4.45313 10 4 9.54688 4 9 C 4 8.45313 4.45313 8 5 8" fill="#00d4ff" opacity="1"/>
</svg>