<?xml version="1.0" encoding="UTF-8"?>
<svg xmlns="http://www.w3.org/2000/svg" viewBox="0 0 22.5 20" x="0" y="0" width="22.5" height="20"><!--! Font Awesome Free x.x.x by @fontawesome - https://fontawesome.com License - https://fontawesome.com/license/free (Icons: CC BY 4.0, Fonts: SIL OFL 1.1, Code: MIT License) Copyright 2025 Fonticons, Inc. --> 
<path d="M 2.5 1.25 C 2.5 0.5625 1.9375 0 1.25 0 C 0.5625 0 0 0.5625 0 1.25 L 0 5 L 0 15 C 0 16.375 1.125 17.5 2.5 17.5 L 10 17.5 L 10 15 L 2.5 15 L 2.5 6.25 L 10 6.25 L 10 3.75 L 2.5 3.75 L 2.5 1.25 M 11.25 7.5 C 11.25 8.1875 11.8125 8.75 12.5 8.75 L 21.25 8.75 C 21.9375 8.75 22.5 8.1875 22.5 7.5 L 22.5 2.5 C 22.5 1.8125 21.9375 1.25 21.25 1.25 L 17.3906 1.25 C 17.0625 1.25 16.75 1.125 16.5156 0.890625 L 15.9844 0.375 C 15.75 0.140625 15.4375 0 15.1094 0 L 12.5 0 C 11.8125 0 11.25 0.5625 11.25 1.25 L 11.25 7.5 M 11.25 18.75 C 11.25 19.4375 11.8125 20 12.5 20 L 21.25 20 C 21.9375 20 22.5 19.4375 22.5 18.75 L 22.5 13.75 C 22.5 13.0625 21.9375 12.5 21.25 12.5 L 17.3906 12.5 C 17.0625 12.5 16.75 12.375 16.5156 12.1406 L 15.9844 11.6094 C 15.75 11.375 15.4375 11.25 15.1094 11.25 L 12.5 11.25 C 11.8125 11.25 11.25 11.8125 11.25 12.5 L 11.25 18.75" fill="#00d4ff" opacity="1"/>
</svg>