<?xml version="1.0" encoding="UTF-8"?>
<svg xmlns="http://www.w3.org/2000/svg" viewBox="0 0 22.5 23.875" x="0" y="0" width="22.5" height="23.875"><!--! Font Awesome Free x.x.x by @fontawesome - https://fontawesome.com License - https://fontawesome.com/license/free (Icons: CC BY 4.0, Fonts: SIL OFL 1.1, Code: MIT License) Copyright 2025 Fonticons, Inc. --> 
<path d="M 11.25 0 C 11.4688 0 11.6875 0.046875 11.875 0.140625 L 20.7031 3.875 C 21.7344 4.3125 22.5 5.32813 22.5 6.5625 C 22.4844 11.2188 20.5625 19.7188 12.4844 23.5938 C 11.7031 23.9688 10.7969 23.9688 10.0156 23.5938 C 1.9375 19.7188 0.03125 11.2188 0 6.5625 C 0 5.32813 0.765625 4.3125 1.79688 3.875 L 10.625 0.140625 C 10.8125 0.046875 11.0313 0 11.25 0 M 11.25 3.125 L 11.25 20.8594 C 17.7188 17.7188 19.4531 10.7813 19.5 6.625 L 11.25 3.125" fill="#00d4ff" opacity="1"/>
</svg>