<?xml version="1.0" encoding="UTF-8"?>
<svg xmlns="http://www.w3.org/2000/svg" viewBox="0 0 22.6243 24" x="0" y="0" width="22.6243" height="24"><!--! Font Awesome Free x.x.x by @fontawesome - https://fontawesome.com License - https://fontawesome.com/license/free (Icons: CC BY 4.0, Fonts: SIL OFL 1.1, Code: MIT License) Copyright 2025 Fonticons, Inc. --> 
<path d="M 22.5669 7.8125 C 22.7075 8.21875 22.5825 8.67188 22.27 8.96875 L 20.2388 10.8125 C 20.2856 11.2031 20.3169 11.5938 20.3169 12 C 20.3169 12.4063 20.2856 12.7969 20.2388 13.1875 L 22.27 15.0313 C 22.5825 15.3281 22.7075 15.7813 22.5669 16.1875 C 22.3638 16.75 22.1138 17.2813 21.8169 17.7969 L 21.5981 18.1719 C 21.2856 18.6875 20.9419 19.1875 20.5669 19.6406 C 20.2856 19.9844 19.8325 20.0938 19.4106 19.9531 L 16.8013 19.125 C 16.1763 19.6094 15.4888 20.0156 14.7388 20.3125 L 14.1606 23 C 14.0669 23.4219 13.7388 23.7656 13.3013 23.8281 C 12.6606 23.9375 11.9888 24 11.3169 24 C 10.6294 24 9.97313 23.9375 9.31688 23.8281 C 8.89501 23.7656 8.56688 23.4219 8.47313 23 L 7.87938 20.3125 C 7.14501 20.0156 6.44188 19.6094 5.81688 19.125 L 3.20751 19.9688 C 2.80126 20.0938 2.33251 19.9844 2.06688 19.6406 C 1.67626 19.1875 1.33251 18.7031 1.02001 18.1875 L 0.801259 17.7969 C 0.520009 17.2813 0.270009 16.75 0.0668838 16.1875 C -0.0893662 15.7813 0.0356338 15.3281 0.363759 15.0469 L 2.39501 13.1875 C 2.34813 12.7969 2.31688 12.4063 2.31688 12 C 2.31688 11.5938 2.34813 11.2031 2.39501 10.8125 L 0.363759 8.96875 C 0.0356338 8.67188 -0.0893662 8.21875 0.0668838 7.8125 C 0.270009 7.25 0.520009 6.71875 0.801259 6.20313 L 1.02001 5.82813 C 1.33251 5.3125 1.67626 4.8125 2.06688 4.35938 C 2.33251 4.01563 2.80126 3.90625 3.20751 4.04688 L 5.81688 4.875 C 6.45751 4.39063 7.14501 3.98438 7.87938 3.67188 L 8.47313 1 C 8.56688 0.578125 8.89501 0.234375 9.33251 0.171875 C 9.97313 0.0625 10.645 0 11.3169 0 C 12.0044 0 12.6606 0.0625 13.3169 0.15625 C 13.7388 0.234375 14.0669 0.578125 14.1606 1 L 14.7544 3.67188 C 15.4888 3.98438 16.1763 4.375 16.8169 4.85938 L 19.4263 4.03125 C 19.8325 3.90625 20.3013 4.01563 20.5669 4.35938 C 20.9575 4.8125 21.3013 5.29688 21.6138 5.8125 L 21.8325 6.20313 C 22.1138 6.71875 22.3638 7.25 22.5669 7.79688 L 22.5669 7.8125 M 11.3169 15.75 C 12.6606 15.75 13.895 15.0313 14.5669 13.875 C 15.2388 12.7188 15.2388 11.2813 14.5669 10.125 C 13.895 8.96875 12.6606 8.25 11.3169 8.25 C 9.97313 8.25 8.73876 8.96875 8.06688 10.125 C 7.39501 11.2813 7.39501 12.7188 8.06688 13.875 C 8.73876 15.0313 9.97313 15.75 11.3169 15.75" fill="#00d4ff" opacity="1"/>
</svg>