<?xml version="1.0" encoding="UTF-8"?>
<svg xmlns="http://www.w3.org/2000/svg" viewBox="0 0 24 23.9922" x="0" y="0" width="24" height="23.9922"><!--! Font Awesome Free x.x.x by @fontawesome - https://fontawesome.com License - https://fontawesome.com/license/free (Icons: CC BY 4.0, Fonts: SIL OFL 1.1, Code: MIT License) Copyright 2025 Fonticons, Inc. --> 
<path d="M 10.9063 0.246094 C 11.5938 -0.0820313 12.4063 -0.0820313 13.1094 0.246094 L 23.3438 4.98047 C 23.75 5.15234 24 5.55859 24 5.99609 C 24 6.43359 23.75 6.83984 23.3438 7.01172 L 13.0938 11.7461 C 12.4063 12.0742 11.5938 12.0742 10.8906 11.7461 L 0.65625 7.01172 C 0.25 6.82422 0 6.43359 0 5.99609 C 0 5.55859 0.25 5.15234 0.65625 4.98047 L 10.9063 0.246094 M 20.8594 9.82422 L 23.3438 10.9805 C 23.75 11.1523 24 11.5586 24 11.9961 C 24 12.4336 23.75 12.8398 23.3438 13.0117 L 13.0938 17.7461 C 12.4063 18.0742 11.5938 18.0742 10.8906 17.7461 L 0.65625 13.0117 C 0.25 12.8242 0 12.4336 0 11.9961 C 0 11.5586 0.25 11.1523 0.65625 10.9805 L 3.14063 9.82422 L 10.2656 13.1055 C 11.375 13.6211 12.6406 13.6211 13.7344 13.1055 L 20.8594 9.82422 M 13.7344 19.1055 L 20.8594 15.8242 L 23.3438 16.9805 C 23.75 17.1523 24 17.5586 24 17.9961 C 24 18.4336 23.75 18.8398 23.3438 19.0117 L 13.0938 23.7461 C 12.4063 24.0742 11.5938 24.0742 10.8906 23.7461 L 0.65625 19.0117 C 0.25 18.8242 0 18.4336 0 17.9961 C 0 17.5586 0.25 17.1523 0.65625 16.9805 L 3.14063 15.8242 L 10.2656 19.1055 C 11.375 19.6211 12.6406 19.6211 13.7344 19.1055" fill="#00d4ff" opacity="1"/>
</svg>