<?xml version="1.0" encoding="UTF-8"?>
<svg xmlns="http://www.w3.org/2000/svg" viewBox="0 0 12 16" x="0" y="0" width="12" height="16"><!--! Font Awesome Free x.x.x by @fontawesome - https://fontawesome.com License - https://fontawesome.com/license/free (Icons: CC BY 4.0, Fonts: SIL OFL 1.1, Code: MIT License) Copyright 2025 Fonticons, Inc. --> 
<path d="M 2 0 C 0.890625 0 0 0.890625 0 2 L 0 14 C 0 15.1094 0.890625 16 2 16 L 10 16 C 11.1094 16 12 15.1094 12 14 L 12 5 L 8 5 C 7.45313 5 7 4.54688 7 4 L 7 0 L 2 0 M 8 0 L 8 4 L 12 4 L 8 0 M 3.5 8 L 8.5 8 C 8.78125 8 9 8.21875 9 8.5 C 9 8.78125 8.78125 9 8.5 9 L 3.5 9 C 3.21875 9 3 8.78125 3 8.5 C 3 8.21875 3.21875 8 3.5 8 M 3.5 10 L 8.5 10 C 8.78125 10 9 10.2188 9 10.5 C 9 10.7813 8.78125 11 8.5 11 L 3.5 11 C 3.21875 11 3 10.7813 3 10.5 C 3 10.2188 3.21875 10 3.5 10 M 3.5 12 L 8.5 12 C 8.78125 12 9 12.2188 9 12.5 C 9 12.7813 8.78125 13 8.5 13 L 3.5 13 C 3.21875 13 3 12.7813 3 12.5 C 3 12.2188 3.21875 12 3.5 12" fill="#00d4ff" opacity="1"/>
</svg>