<?xml version="1.0" encoding="UTF-8"?>
<svg xmlns="http://www.w3.org/2000/svg" viewBox="0 0 19.9922 16.0071" x="0" y="0" width="19.9922" height="16.0071"><!--! Font Awesome Free x.x.x by @fontawesome - https://fontawesome.com License - https://fontawesome.com/license/free (Icons: CC BY 4.0, Fonts: SIL OFL 1.1, Code: MIT License) Copyright 2025 Fonticons, Inc. --> 
<path d="M 12.2773 0.0347949 C 11.7461 -0.10583 11.1836 0.191045 11.0273 0.722295 L 7.02734 14.7223 C 6.88672 15.2535 7.18359 15.816 7.71484 15.9723 C 8.24609 16.1129 8.80859 15.816 8.96484 15.2848 L 12.9648 1.28479 C 13.1055 0.753545 12.8086 0.191045 12.2773 0.0347949 M 14.793 3.80042 C 14.4023 4.19104 14.4023 4.81604 14.793 5.20667 L 17.5742 8.00354 L 14.793 10.8004 C 14.4023 11.191 14.4023 11.816 14.793 12.2067 C 15.1836 12.5973 15.8086 12.5973 16.1992 12.2067 L 19.6992 8.70667 C 20.0898 8.31604 20.0898 7.69104 19.6992 7.30042 L 16.1992 3.80042 C 15.8086 3.40979 15.1836 3.40979 14.793 3.80042 M 5.19922 3.80042 C 4.80859 3.40979 4.18359 3.40979 3.79297 3.80042 L 0.292969 7.30042 C -0.0976563 7.69104 -0.0976563 8.31604 0.292969 8.70667 L 3.79297 12.2067 C 4.18359 12.5973 4.80859 12.5973 5.19922 12.2067 C 5.58984 11.816 5.58984 11.191 5.19922 10.8004 L 2.41797 8.00354 L 5.19922 5.20667 C 5.58984 4.81604 5.58984 4.19104 5.19922 3.80042" fill="#00d4ff" opacity="1"/>
</svg>