<?xml version="1.0" encoding="UTF-8"?>
<svg xmlns="http://www.w3.org/2000/svg" viewBox="0 0 15 15.9063" x="0" y="0" width="15" height="15.9063"><!--! Font Awesome Free x.x.x by @fontawesome - https://fontawesome.com License - https://fontawesome.com/license/free (Icons: CC BY 4.0, Fonts: SIL OFL 1.1, Code: MIT License) Copyright 2025 Fonticons, Inc. --> 
<path d="M 7.5 0 C 7.64063 0 7.78125 0.03125 7.92188 0.09375 L 13.7969 2.59375 C 14.4844 2.875 15 3.5625 15 4.375 C 14.9844 7.46875 13.7031 13.1406 8.32813 15.7188 C 7.79688 15.9688 7.20313 15.9688 6.67188 15.7188 C 1.29688 13.1406 0.015625 7.46875 0 4.375 C 0 3.5625 0.515625 2.875 1.20313 2.59375 L 7.07813 0.09375 C 7.21875 0.03125 7.35938 0 7.5 0 M 7.5 2.09375 L 7.5 13.9063 C 11.8125 11.8125 12.9688 7.1875 13 4.42188 L 7.5 2.09375" fill="#00d4ff" opacity="1"/>
</svg>