<?xml version="1.0" encoding="UTF-8"?>
<svg xmlns="http://www.w3.org/2000/svg" viewBox="0 0 16 16" x="0" y="0" width="16" height="16"><!--! Font Awesome Free x.x.x by @fontawesome - https://fontawesome.com License - https://fontawesome.com/license/free (Icons: CC BY 4.0, Fonts: SIL OFL 1.1, Code: MIT License) Copyright 2025 Fonticons, Inc. --> 
<path d="M 11 8 C 11 8.6875 10.9688 9.35938 10.8906 10 L 5.10938 10 C 5.03125 9.35938 5 8.6875 5 8 C 5 7.3125 5.04688 6.64063 5.10938 6 L 10.8906 6 C 10.9688 6.64063 11 7.3125 11 8 M 11.9063 6 L 15.75 6 C 15.9063 6.64063 16 7.3125 16 8 C 16 8.6875 15.9063 9.35938 15.75 10 L 11.9063 10 C 11.9688 9.35938 12 8.6875 12 8 C 12 7.3125 11.9688 6.64063 11.9063 6 M 15.4219 5 L 11.7656 5 C 11.4531 3 10.8438 1.32813 10.0469 0.265625 C 12.4844 0.90625 14.4844 2.6875 15.4219 5 M 10.7656 5 L 5.23438 5 C 5.4375 3.85938 5.71875 2.85938 6.07813 2.04688 C 6.40625 1.29688 6.78125 0.765625 7.125 0.4375 C 7.48438 0.09375 7.76563 0 8 0 C 8.23438 0 8.51563 0.09375 8.875 0.4375 C 9.21875 0.765625 9.59375 1.29688 9.92188 2.04688 C 10.2813 2.85938 10.5625 3.85938 10.7656 5 M 4.23438 5 L 0.578125 5 C 1.51563 2.6875 3.5 0.90625 5.95313 0.265625 C 5.15625 1.32813 4.54688 3 4.23438 5 M 0.25 6 L 4.09375 6 C 4.03125 6.64063 4 7.3125 4 8 C 4 8.6875 4.03125 9.35938 4.09375 10 L 0.25 10 C 0.09375 9.35938 0 8.6875 0 8 C 0 7.3125 0.09375 6.64063 0.25 6 M 6.07813 13.9531 C 5.71875 13.1406 5.4375 12.1406 5.23438 11 L 10.7656 11 C 10.5625 12.1406 10.2813 13.1406 9.92188 13.9531 C 9.59375 14.6875 9.21875 15.2344 8.875 15.5625 C 8.51563 15.9063 8.23438 16 8 16 C 7.76563 16 7.48438 15.9063 7.125 15.5625 C 6.78125 15.2344 6.40625 14.7031 6.07813 13.9531 M 4.23438 11 C 4.54688 13 5.15625 14.6719 5.95313 15.7344 C 3.5 15.0938 1.51563 13.3125 0.578125 11 L 4.23438 11 M 15.4219 11 C 14.4844 13.3125 12.5 15.0938 10.0469 15.7344 C 10.8438 14.6719 11.4531 13 11.7813 11 L 15.4219 11" fill="#00d4ff" opacity="1"/>
</svg>